# xmcd
#
# Track frame offsets:
#	150
#	16984
#	29709
#	43620
#	58410
#	73177
#	89292
#	104980
#	124370
#	139784
#	154500
#	171527
#	186656
#	202557
#	216249
#	232784
#	246807
#	257837
#	271504
#	286680
#
# Disc length: 4016 seconds
#
# Revision: 1
# Processed by: cddbd v1.5.2PL0 Copyright (c) Steve Scherf et al.
# Submitted via: audiograbber 1.83.01
#
DISCID=2e0fae14
DTITLE=Various Artist - Country Top Hits of the 80s
DYEAR=2007
DGENRE=Country
TTITLE0=Alabama - Take Me Down
TTITLE1=Charley Pride - Mountain Of Love
TTITLE2=Clint Black - A Better Man
TTITLE3=George Jones - He Stopped Loving Her Today
TTITLE4=Jerry Reed - She Got The Goldmine (I Got The Shaft)
TTITLE5=Keith Whitley - I'm No Stranger To The Rain
TTITLE6=Mickey Gilley - Lonely Nights
TTITLE7=Restless Heart - I'll Still Be Loving You
TTITLE8=Ricky Van Shelton - Crime Of Passion
TTITLE9=Rosanne Cash - Seven Year Ache
TTITLE10=Shenandoah - Two Dozen Roses
TTITLE11=Sylvia - Nobody
TTITLE12=Willie Nelson - Always On My Mind
TTITLE13=Waylon Jennings - Drinkin' And Dreamin'
TTITLE14=Vince Gill - Oklahoma Borderline
TTITLE15=Dolly Parton - I Will Always Love You
TTITLE16=Eddy Raven - I Got Mexico
TTITLE17=Deborah Allen - I've Been Wrong Before
TTITLE18=Steve Wariner - All Roads Lead To You
TTITLE19=Eddie Rabbitt - I Wanna Dance With You
EXTD=
EXTT0=
EXTT1=
EXTT2=
EXTT3=
EXTT4=
EXTT5=
EXTT6=
EXTT7=
EXTT8=
EXTT9=
EXTT10=
EXTT11=
EXTT12=
EXTT13=
EXTT14=
EXTT15=
EXTT16=
EXTT17=
EXTT18=
EXTT19=
PLAYORDER=
